<mxfile host="app.diagrams.net" modified="2024-03-21T13:55:28.766Z" agent="Mozilla/5.0 (Windows NT 10.0; Win64; x64) AppleWebKit/537.36 (KHTML, like Gecko) Chrome/120.0.0.0 YaBrowser/24.1.0.0 Safari/537.36" etag="EH03tZYdhfJQ_6bRy2b5" version="24.0.7" type="device">
  <diagram name="Страница — 1" id="nafdw1E1wB9UXHz4G8qa">
    <mxGraphModel dx="1434" dy="767" grid="1" gridSize="10" guides="1" tooltips="1" connect="1" arrows="1" fold="1" page="1" pageScale="1" pageWidth="827" pageHeight="1169" math="0" shadow="0">
      <root>
        <mxCell id="0" />
        <mxCell id="1" parent="0" />
        <mxCell id="uV8jlJcltkMlIiDCEP9p-2" value="" style="rounded=0;whiteSpace=wrap;html=1;dashed=1;gradientColor=none;" vertex="1" parent="1">
          <mxGeometry x="40" y="160" width="760" height="870" as="geometry" />
        </mxCell>
        <mxCell id="uV8jlJcltkMlIiDCEP9p-3" value="MSA" style="text;html=1;align=center;verticalAlign=middle;resizable=0;points=[];autosize=1;strokeColor=none;fillColor=none;" vertex="1" parent="1">
          <mxGeometry x="40" y="10" width="50" height="30" as="geometry" />
        </mxCell>
        <mxCell id="uV8jlJcltkMlIiDCEP9p-24" style="edgeStyle=orthogonalEdgeStyle;rounded=0;orthogonalLoop=1;jettySize=auto;html=1;" edge="1" parent="1" source="uV8jlJcltkMlIiDCEP9p-5" target="uV8jlJcltkMlIiDCEP9p-10">
          <mxGeometry relative="1" as="geometry" />
        </mxCell>
        <mxCell id="uV8jlJcltkMlIiDCEP9p-25" style="edgeStyle=orthogonalEdgeStyle;rounded=0;orthogonalLoop=1;jettySize=auto;html=1;" edge="1" parent="1" source="uV8jlJcltkMlIiDCEP9p-5" target="uV8jlJcltkMlIiDCEP9p-9">
          <mxGeometry relative="1" as="geometry" />
        </mxCell>
        <mxCell id="uV8jlJcltkMlIiDCEP9p-26" style="edgeStyle=orthogonalEdgeStyle;rounded=0;orthogonalLoop=1;jettySize=auto;html=1;" edge="1" parent="1" source="uV8jlJcltkMlIiDCEP9p-5" target="uV8jlJcltkMlIiDCEP9p-11">
          <mxGeometry relative="1" as="geometry" />
        </mxCell>
        <mxCell id="uV8jlJcltkMlIiDCEP9p-5" value="API" style="rounded=1;whiteSpace=wrap;html=1;" vertex="1" parent="1">
          <mxGeometry x="354" y="190" width="120" height="60" as="geometry" />
        </mxCell>
        <mxCell id="uV8jlJcltkMlIiDCEP9p-32" style="edgeStyle=orthogonalEdgeStyle;rounded=0;orthogonalLoop=1;jettySize=auto;html=1;exitX=0;exitY=0.5;exitDx=0;exitDy=0;entryX=1;entryY=0.5;entryDx=0;entryDy=0;" edge="1" parent="1" source="uV8jlJcltkMlIiDCEP9p-9" target="uV8jlJcltkMlIiDCEP9p-11">
          <mxGeometry relative="1" as="geometry" />
        </mxCell>
        <mxCell id="uV8jlJcltkMlIiDCEP9p-9" value="" style="rounded=0;whiteSpace=wrap;html=1;dashed=1;" vertex="1" parent="1">
          <mxGeometry x="319" y="310" width="190" height="290" as="geometry" />
        </mxCell>
        <mxCell id="uV8jlJcltkMlIiDCEP9p-30" style="edgeStyle=orthogonalEdgeStyle;rounded=0;orthogonalLoop=1;jettySize=auto;html=1;entryX=0.5;entryY=1;entryDx=0;entryDy=0;exitX=0.544;exitY=0.997;exitDx=0;exitDy=0;exitPerimeter=0;" edge="1" parent="1">
          <mxGeometry relative="1" as="geometry">
            <mxPoint x="690.46" y="609.1" as="sourcePoint" />
            <mxPoint x="137.53999999999994" y="600" as="targetPoint" />
            <Array as="points">
              <mxPoint x="690.54" y="740" />
              <mxPoint x="137.54" y="740" />
            </Array>
          </mxGeometry>
        </mxCell>
        <mxCell id="uV8jlJcltkMlIiDCEP9p-10" value="" style="rounded=0;whiteSpace=wrap;html=1;dashed=1;" vertex="1" parent="1">
          <mxGeometry x="610" y="310" width="180" height="300" as="geometry" />
        </mxCell>
        <mxCell id="uV8jlJcltkMlIiDCEP9p-11" value="" style="rounded=0;whiteSpace=wrap;html=1;dashed=1;" vertex="1" parent="1">
          <mxGeometry x="60" y="310" width="190" height="290" as="geometry" />
        </mxCell>
        <mxCell id="uV8jlJcltkMlIiDCEP9p-13" value="USER" style="text;html=1;align=center;verticalAlign=middle;resizable=0;points=[];autosize=1;strokeColor=none;fillColor=none;" vertex="1" parent="1">
          <mxGeometry x="605" y="320" width="60" height="30" as="geometry" />
        </mxCell>
        <mxCell id="uV8jlJcltkMlIiDCEP9p-14" value="BLOG" style="text;html=1;align=center;verticalAlign=middle;resizable=0;points=[];autosize=1;strokeColor=none;fillColor=none;" vertex="1" parent="1">
          <mxGeometry x="320" y="320" width="60" height="30" as="geometry" />
        </mxCell>
        <mxCell id="uV8jlJcltkMlIiDCEP9p-15" value="&lt;span style=&quot;text-wrap: wrap;&quot;&gt;NOTIFY&lt;/span&gt;" style="text;html=1;align=center;verticalAlign=middle;resizable=0;points=[];autosize=1;strokeColor=none;fillColor=none;" vertex="1" parent="1">
          <mxGeometry x="60" y="320" width="70" height="30" as="geometry" />
        </mxCell>
        <mxCell id="uV8jlJcltkMlIiDCEP9p-20" style="edgeStyle=orthogonalEdgeStyle;rounded=0;orthogonalLoop=1;jettySize=auto;html=1;" edge="1" parent="1" source="uV8jlJcltkMlIiDCEP9p-19" target="uV8jlJcltkMlIiDCEP9p-5">
          <mxGeometry relative="1" as="geometry" />
        </mxCell>
        <mxCell id="uV8jlJcltkMlIiDCEP9p-19" value="Frontend" style="rounded=1;whiteSpace=wrap;html=1;" vertex="1" parent="1">
          <mxGeometry x="354" y="60" width="120" height="60" as="geometry" />
        </mxCell>
        <mxCell id="uV8jlJcltkMlIiDCEP9p-21" value="PostgreSQL" style="shape=cylinder3;whiteSpace=wrap;html=1;boundedLbl=1;backgroundOutline=1;size=15;" vertex="1" parent="1">
          <mxGeometry x="384" y="500" width="60" height="80" as="geometry" />
        </mxCell>
        <mxCell id="uV8jlJcltkMlIiDCEP9p-22" value="MongoDB" style="shape=cylinder3;whiteSpace=wrap;html=1;boundedLbl=1;backgroundOutline=1;size=15;" vertex="1" parent="1">
          <mxGeometry x="670" y="505" width="60" height="80" as="geometry" />
        </mxCell>
        <mxCell id="uV8jlJcltkMlIiDCEP9p-23" value="RabbitMQ" style="shape=cylinder3;whiteSpace=wrap;html=1;boundedLbl=1;backgroundOutline=1;size=15;" vertex="1" parent="1">
          <mxGeometry x="125" y="490" width="60" height="80" as="geometry" />
        </mxCell>
        <mxCell id="uV8jlJcltkMlIiDCEP9p-31" style="edgeStyle=orthogonalEdgeStyle;rounded=0;orthogonalLoop=1;jettySize=auto;html=1;entryX=0.535;entryY=1.001;entryDx=0;entryDy=0;entryPerimeter=0;" edge="1" parent="1" source="uV8jlJcltkMlIiDCEP9p-9" target="uV8jlJcltkMlIiDCEP9p-11">
          <mxGeometry relative="1" as="geometry">
            <Array as="points">
              <mxPoint x="414" y="710" />
              <mxPoint x="162" y="710" />
            </Array>
          </mxGeometry>
        </mxCell>
        <mxCell id="uV8jlJcltkMlIiDCEP9p-33" value="Notify" style="rounded=0;whiteSpace=wrap;html=1;" vertex="1" parent="1">
          <mxGeometry x="95" y="350" width="120" height="60" as="geometry" />
        </mxCell>
        <mxCell id="uV8jlJcltkMlIiDCEP9p-35" value="&lt;span style=&quot;text-wrap: nowrap;&quot;&gt;Blog&lt;/span&gt;" style="rounded=0;whiteSpace=wrap;html=1;" vertex="1" parent="1">
          <mxGeometry x="360" y="350" width="120" height="60" as="geometry" />
        </mxCell>
        <mxCell id="uV8jlJcltkMlIiDCEP9p-36" value="&lt;span style=&quot;text-wrap: nowrap;&quot;&gt;User&lt;/span&gt;" style="rounded=0;whiteSpace=wrap;html=1;" vertex="1" parent="1">
          <mxGeometry x="640" y="350" width="120" height="60" as="geometry" />
        </mxCell>
      </root>
    </mxGraphModel>
  </diagram>
</mxfile>
